PathFileType	3	(X/Y/Z)	D:\Jess\Healthy\Labelled\HA22\20251031\SRRun01.trc
DataRate	CameraRate	NumFrames	NumMarkers	Units	OrigDataRate	OrigDataStartFrame	OrigNumFrames
250.0	250.0	4	37	mm	250.0	37188	2501
Frame#	Time	C7			T10			CLAV			LSHO			RSHO			LASIS			RASIS			LPSIS			RPSIS			LILCR			RILCR			LGTR			LTHI			LLTHI			LLEP			LMEP			LPSH			LLSH			LDSH			LLMAL			LMMAL			LTOE			L5TH			LHEE			RGTR			RTHI			RLTHI			RLEP			RMEP			RPSH			RLSH			RDSH			RLMAL			RMMAL			RTOE			R5TH			RHEE			
		X1	Y1	Z1	X2	Y2	Z2	X3	Y3	Z3	X4	Y4	Z4	X5	Y5	Z5	X6	Y6	Z6	X7	Y7	Z7	X8	Y8	Z8	X9	Y9	Z9	X10	Y10	Z10	X11	Y11	Z11	X12	Y12	Z12	X13	Y13	Z13	X14	Y14	Z14	X15	Y15	Z15	X16	Y16	Z16	X17	Y17	Z17	X18	Y18	Z18	X19	Y19	Z19	X20	Y20	Z20	X21	Y21	Z21	X22	Y22	Z22	X23	Y23	Z23	X24	Y24	Z24	X25	Y25	Z25	X26	Y26	Z26	X27	Y27	Z27	X28	Y28	Z28	X29	Y29	Z29	X30	Y30	Z30	X31	Y31	Z31	X32	Y32	Z32	X33	Y33	Z33	X34	Y34	Z34	X35	Y35	Z35	X36	Y36	Z36	X37	Y37	Z37	

2189	148.748	833.1614001927716	1552.216660600458	-841.8889288239336	804.9073401119363	1307.338125278061	-766.5862905672888	852.2879351958552	1460.909172318963	-982.2258881322036	684.3603245486474	1568.132422640573	-928.3939030706349	1002.216279930417	1539.981975375479	-883.9763589711209	706.6601794942345	1039.977742106892	-936.2671508625042	927.306383908786	1062.815270833697	-912.8899934686775	785.3978936926796	1082.986534944433	-742.086359785138	827.7737515374805	1085.200993861066	-733.0881265721545	661.4309652031908	1129.77038606285	-875.3296258498475	979.5857414665375	1133.946197544209	-846.6100721497959	641.1144547031602	888.2686442807096	-854.6833697181332	731.6955306485918	730.4496679080313	-918.2834552701255	662.0325144807764	676.946995876036	-782.2395049219853	693.2194737532535	547.6563669061733	-729.5570634858318	nan	nan	nan	734.5538342483146	452.5916927332797	-650.7028104508616	680.0544770832246	516.1905933803447	-517.7823051245293	731.4895889060564	435.1649968453309	-447.1172551397489	700.7579392556388	474.3440946635214	-306.7728232016254	nan	nan	nan	702.9469179033366	309.7891775970102	-256.3708358616585	667.2362302343812	356.6557277639084	-222.9418597257665	769.0934769146385	548.8909566169151	-273.7560409162808	1005.369786699042	925.1703132413551	-867.3420166854145	921.9535020261637	814.5713891208436	-1031.22675424624	986.1526598594005	719.4503356685273	-970.104512836471	952.6234298605585	569.1784232858728	-1002.365137504505	nan	nan	nan	889.6012747679396	456.3054900061246	-1054.372121108597	951.3644884802437	352.4066966044744	-981.6475057618163	875.3453523580806	261.0977202935544	-1031.332493709001	906.0246437018764	122.7554657873017	-971.3325569646516	nan	nan	nan	883.1261456048421	73.93674696534889	-1127.839321170756	927.7987225920199	44.99115146470266	-1082.412736680354	849.8906220504783	89.6262192121831	-886.2193870319128	
2190	148.752	834.3105089365534	1548.015717083891	-842.0312848313851	805.4356915787943	1303.186344861161	-765.9372188092335	852.3716526475833	1455.702559518703	-982.749809398008	684.7386996160698	1563.672291953825	-928.0874529876481	1003.446568395694	1534.856545036804	-885.5251233853353	706.196968037532	1035.706610184681	-935.6012612608037	927.5737116006596	1059.19750954493	-912.1996694688096	784.5712927868536	1077.484174122236	-741.1357907491886	826.9674193590558	1079.868106551725	-732.2942078035155	660.6546179789233	1124.576937628038	-874.2723128660006	979.7201815705558	1128.717065874359	-845.0315311141494	641.1033638894534	882.9301393723686	-855.4570782992944	730.7726578622246	726.7703345217661	-920.8357469170429	661.6934992276222	670.9542111332828	-785.5104587335655	692.531963006817	542.0591074535946	-735.4983999625176	nan	nan	nan	734.3928491224049	448.9268150095383	-656.1449259014669	680.0658853281657	515.7361638111115	-524.2372943839264	731.6306533119781	436.5200142051105	-452.0841869979408	701.3161329260597	479.4657083897762	-312.5530220102909	nan	nan	nan	702.7319062863671	315.9608484945971	-258.8967481654231	667.3457906410254	363.7846600076023	-226.4076185177023	770.3059086220551	554.2751932779862	-281.3687129435419	1005.036170782125	921.2209816110363	-866.9687644181934	922.9743379347525	812.6037766650996	-1032.072430020438	985.4061145874549	716.5127540517374	-970.1775627458173	952.1369315831416	565.6945303944515	-1002.474860517809	nan	nan	nan	888.7424213007089	452.1897963482198	-1052.8976142238	950.0318084668221	349.6627372908581	-977.630248302059	873.4631464843778	257.5191637711067	-1024.783175284198	904.0404559907752	121.4195426284594	-961.1426311250771	nan	nan	nan	881.8312896560658	72.04531656666209	-1116.967177026178	927.0237178381759	44.18994721163987	-1071.123956506535	848.127530999914	88.65150726171456	-875.2164668627308	
2191	148.756	835.4469817530093	1543.893528895908	-842.1493181016388	805.9770431037085	1299.111022598633	-765.2707299184399	852.4081780130206	1450.49942892717	-983.2685560113473	685.0645056747071	1559.230960505046	-927.6692441388279	1004.694791471877	1529.733782581333	-887.0761671142604	705.7412222235332	1031.361075958116	-934.8727449427807	927.848614301788	1055.57605455404	-911.4586144531479	783.7041940860024	1071.982725193651	-740.1030962227507	826.1281297264431	1074.583414248041	-731.4482351786012	659.8795446335197	1119.296561434217	-873.1172019028601	979.860407490323	1123.418030720833	-843.3773386326304	641.116709801502	877.5839071968765	-856.2267817212091	729.8155540852331	723.1950609746285	-923.4260602940971	661.3574846485063	665.028440116325	-788.8489340180063	691.8054919389446	536.5876088947135	-741.5700692646175	nan	nan	nan	734.2594685196759	445.3361844759847	-661.8443607983088	680.0681648515229	515.2114164216143	-530.9827976514474	731.7857190786779	437.7678866504079	-457.4474485062982	701.8861371982211	484.3222311041272	-318.7932617699751	nan	nan	nan	702.543090105773	321.8808396657025	-262.0817873631545	667.4510454535399	370.5981033176772	-230.5190581747082	771.510278032599	559.3340467344335	-289.3237420402145	1004.719825552903	917.3072912135129	-866.5083965123026	924.0047637025893	810.3140755508346	-1032.63176192156	984.6934573749506	713.4333961742524	-969.8543039486814	951.5850095604274	562.1340550851568	-1002.232629047731	nan	nan	nan	887.7567872070024	448.0656292040766	-1051.059821968667	948.6967745835962	347.0278208603307	-973.2972253973097	871.5742750697706	254.0684187728198	-1017.837257627309	902.1513373771562	120.2830915853981	-950.5790748436573	nan	nan	nan	880.6393949243629	70.4773974397373	-1105.728103894321	926.3457794903715	43.66371671579036	-1059.529554595808	846.4840429125931	87.7803901057583	-863.867400273787	
2192	148.76	836.5674769724659	1539.882179904561	-842.2444337983807	806.5309515189865	1295.150591235287	-764.586073794306	852.392978641795	1445.343355904705	-983.775116372206	685.3391545062979	1554.84491656258	-927.1325641143122	1005.953195138719	1524.649867453983	-888.624758843972	705.2969153344484	1026.974270069107	-934.0776784620275	928.1249782178577	1051.971662355272	-910.6670265661107	782.8101712737055	1066.537188703449	-738.9885235504597	825.2692755972814	1069.401855233645	-730.5484822766859	659.1137709625078	1113.982071934186	-871.8424413660733	980.0024279607073	1118.100830437204	-841.6627977760228	641.1560761764401	872.2835324487038	-856.9846444908347	728.8354959931514	719.7567475052965	-926.0587166947487	661.0210142006872	659.2198706976187	-792.2684643898116	691.051692917909	531.2774357745681	-747.7814045601372	nan	nan	nan	734.1470376692488	441.8360949906983	-667.8028649781036	680.059697061223	514.6262788656805	-538.0152806780984	731.9533240741027	438.9048430892186	-463.19931452879	702.4580613529446	488.8897002078977	-325.474350421313	nan	nan	nan	702.3911871547639	327.5112869228103	-265.9128340304655	667.5530208878507	377.0502302524857	-235.2581403647288	772.6792203260447	564.0616414357859	-297.5855222215424	1004.423540817271	913.4572087511164	-865.9465127916259	925.0151797943557	807.6911336097365	-1032.874221752483	984.0172703979878	710.2193046614238	-969.124781529125	950.9750584377906	558.5245480553575	-1001.625897420902	nan	nan	nan	886.659256863035	443.9687449592598	-1048.843112488284	947.3818702871196	344.5238590906756	-968.6632014715514	869.71778808649	250.7754990770009	-1010.530632389089	900.3928060117842	119.3453833046024	-939.7126924244542	nan	nan	nan	879.56425138536	69.21330814881178	-1094.19721939919	925.7668254594104	43.37802336234751	-1047.704044688658	844.9858891868956	87.02540683339659	-852.250587190155	
